<svg preserveAspectRatio="none" overflow="visible" style="display: block;" width="20" height="20" viewBox="0 0 20 20" fill="none" xmlns="http://www.w3.org/2000/svg">
<g id="Frame">
<path id="Vector" d="M7.5 15H12.5M8.33333 18.3333H11.6667M10 1.66667C8.76812 1.67773 7.57136 2.07851 6.58127 2.81157C5.59117 3.54463 4.85858 4.57233 4.48849 5.74736C4.1184 6.92239 4.12982 8.18442 4.52111 9.35256C4.9124 10.5207 5.66347 11.535 6.66667 12.25C7.16667 12.6667 7.5 13.25 7.5 14.1667H12.5C12.5 13.25 12.8333 12.6667 13.3333 12.25C14.3365 11.535 15.0876 10.5207 15.4789 9.35256C15.8702 8.18442 15.8816 6.92239 15.5115 5.74736C15.1414 4.57233 14.4088 3.54463 13.4187 2.81157C12.4286 2.07851 11.2319 1.67773 10 1.66667Z" stroke="white" stroke-width="2" stroke-linecap="round" stroke-linejoin="round"/>
</g>
</svg>
