<svg preserveAspectRatio="none" overflow="visible" style="display: block;" width="52.7626" height="52.7306" viewBox="0 0 52.7626 52.7306" fill="none" xmlns="http://www.w3.org/2000/svg">
<g id="Group">
<path id="Vector" d="M5.11024 25.5121C5.34065 22.2524 6.04835 19.1902 7.62832 16.4244C8.15498 15.486 8.20436 14.8768 7.61187 13.9055C6.11418 11.4525 6.78896 8.2257 9.0108 6.43121C11.3149 4.58733 14.4584 4.63672 16.6967 6.6123C17.1576 7.02389 17.4703 7.05681 18.0463 6.82633C20.6302 5.70683 23.3458 5.13061 26.1766 5.13061C26.7032 5.13061 26.9995 4.96598 27.2957 4.52147C29.5834 1.09712 33.7308 -0.598588 37.7466 0.191646C41.6801 0.965418 44.8565 4.15928 45.6959 8.14338C46.1896 10.4812 45.8605 12.7037 44.873 14.8604C44.7413 15.1403 44.6919 15.5683 44.8236 15.8152C46.7327 19.2725 47.6873 22.9603 47.605 26.9115C47.605 27.0102 47.6379 27.1255 47.6544 27.2572C49.7281 27.6688 51.2916 28.7883 52.1639 30.698C52.9868 32.476 53.0033 34.3528 51.9499 35.9662C50.37 38.3863 48.5596 40.6583 46.7821 43.0784C45.6794 41.6131 44.6426 40.2467 43.6386 38.9132C42.5524 40.0491 41.4826 41.1357 40.4457 42.2716C40.3141 42.4198 40.3141 42.7491 40.347 42.996C40.4951 44.4283 40.742 45.8606 40.8078 47.2929C40.8737 48.6429 40.1989 49.3014 38.8658 49.2521C37.6479 49.2027 36.8085 49.4332 35.9362 50.5362C33.4181 53.7465 28.6453 53.3514 26.4564 49.8941C26.1437 49.4002 25.8145 49.2521 25.2714 49.2685C22.5558 49.285 19.8402 49.285 17.1246 49.2685C16.6638 49.2685 16.4005 49.4167 16.1372 49.8118C13.6684 53.6807 8.41831 53.6807 5.98251 49.8118C5.71918 49.4002 5.45586 49.2685 4.99503 49.285C3.89234 49.3014 2.8061 49.3014 1.70341 49.285C0.715927 49.2685 0.0740614 48.6429 0.0246871 47.6387C-0.00822904 47.0295 -0.00822904 46.4368 0.0246871 45.8277C0.0740614 45.1033 0.419681 44.5106 1.12738 44.3625C1.76924 44.2143 1.70341 43.8192 1.70341 43.3912C1.70341 38.2876 1.70341 33.184 1.70341 28.0804C1.70341 25.9566 2.11486 25.545 4.27087 25.545C4.50129 25.5121 4.74816 25.5121 5.11024 25.5121ZM39.738 40.6747C40.7585 39.4729 41.6307 38.4357 42.4701 37.4479C42.3549 37.2504 42.322 37.1681 42.2726 37.1022C39.3431 33.6778 40.923 28.4919 45.3832 27.3066C45.6136 27.2407 45.8934 26.8127 45.8769 26.5822C45.7453 25.0017 45.6465 23.4048 45.3338 21.8573C45.0046 20.178 44.3957 18.5811 43.4411 16.9841C40.8078 20.3262 38.2568 23.5694 35.6729 26.8456C32.9409 23.3554 30.2747 19.9804 27.6249 16.589C26.1601 14.7122 25.4195 12.5555 25.5183 10.1684C25.5676 9.06533 25.7651 7.96229 25.9133 6.7934C23.3623 6.82633 20.8935 7.36961 18.5236 8.43972C18.3919 8.48911 18.359 8.95008 18.4248 9.18057C18.9021 10.8763 18.8527 12.5555 17.8653 14.0043C16.2688 16.3585 14.5078 18.5975 12.7797 20.9518C11.6606 19.4536 10.5908 18.0378 9.45517 16.5396C7.85874 19.3384 6.97 22.2359 6.88771 25.4792C7.2827 25.4792 7.61187 25.4792 7.94103 25.4792C13.0759 25.4792 18.1944 25.5121 23.3293 25.4627C27.1476 25.4298 27.2957 25.4956 27.197 29.3151C27.1805 29.7102 27.197 30.1218 27.197 30.5828C29.8961 30.5828 32.4636 30.5828 35.031 30.5828C36.5123 30.5828 37.3681 31.2742 37.7302 32.7065C38.3885 35.3077 39.0304 37.8595 39.738 40.6747ZM25.4689 44.1649C25.4689 38.4522 25.4689 32.8547 25.4689 27.2407C23.2141 27.2407 21.0252 27.2407 18.7046 27.2407C18.7046 29.3809 18.7046 31.4718 18.7046 33.6614C17.5196 33.0687 16.4499 32.5913 15.4295 32.0151C14.7218 31.6035 14.1622 31.6199 13.4709 32.0315C12.4505 32.6077 11.3643 33.1016 10.1958 33.6778C10.1958 31.4224 10.1958 29.348 10.1958 27.2407C7.92457 27.2407 5.73564 27.2407 3.5138 27.2407C3.5138 32.9041 3.5138 38.5016 3.5138 44.1649C3.81005 44.1649 4.05692 44.132 4.30379 44.1649C5.20898 44.2802 5.78502 44.0003 6.37751 43.1771C8.58289 40.1479 13.1253 39.8845 15.413 42.7655C16.384 43.9838 17.3221 44.3296 18.6882 44.1649C18.9021 44.132 19.1325 44.1649 19.3465 44.1649C21.3544 44.1649 23.3787 44.1649 25.4689 44.1649ZM35.6729 24.0962C35.8375 23.9152 35.9198 23.8164 36.0021 23.7176C38.1416 21.0012 40.2812 18.3012 42.4043 15.5683C43.5892 14.0537 44.1159 12.3086 44.1817 10.3824C44.3299 5.26232 39.7051 0.767859 34.0436 1.8709C27.987 3.05625 25.1726 10.1354 28.7605 15.1896C30.9001 18.2353 33.3194 21.0835 35.6729 24.0962ZM38.8493 44.1649C38.4543 42.5844 38.0429 41.1686 37.7466 39.7363C37.6314 39.2095 37.401 39.0778 36.9237 39.0942C35.4919 39.1107 34.0765 39.1107 32.6446 39.0942C32.299 39.0942 31.9205 39.0613 31.6078 38.9296C30.9001 38.6333 30.5544 38.0571 30.6203 37.2998C30.7026 36.2132 30.1924 34.9126 31.5419 34.2211C31.9369 34.0236 32.4471 34.0071 32.8915 33.9906C33.9942 33.9577 35.0969 33.9742 36.216 33.9742C35.9856 32.3937 35.8539 32.2785 34.4385 32.2785C32.5788 32.2785 30.719 32.2785 28.8428 32.2785C28.2997 32.2785 27.773 32.2785 27.2299 32.2785C27.2299 35.7193 27.2299 39.0449 27.2299 42.4034C27.3616 42.3375 27.4439 42.321 27.4932 42.2716C30.3569 39.7363 34.8006 40.5595 36.611 43.8027C36.6933 43.9509 36.9237 44.1155 37.1048 44.132C37.6643 44.1978 38.2074 44.1649 38.8493 44.1649ZM12.7632 18.1366C14.0141 16.4738 15.2155 14.9427 16.3182 13.3458C17.5196 11.5842 17.1411 9.24642 15.5447 7.84705C13.9811 6.4806 11.6606 6.46414 10.0477 7.79766C8.45123 9.13118 8.00686 11.4854 9.14247 13.2141C10.2452 14.8933 11.496 16.4409 12.7632 18.1366ZM46.7327 40.2302C47.9177 38.6333 49.1027 37.1351 50.2054 35.5711C51.4562 33.8096 51.1435 31.4059 49.5635 29.9901C47.9836 28.5742 45.5478 28.5742 43.9349 29.9736C42.3549 31.3401 42.0093 33.7108 43.2107 35.4723C44.3134 37.0693 45.5148 38.5839 46.7327 40.2302ZM15.3143 46.7167C15.2978 44.4119 13.3557 42.4857 11.0516 42.4857C8.76393 42.4857 6.80542 44.4448 6.78896 46.7332C6.7725 49.038 8.81331 51.0465 11.1174 50.9972C13.4545 50.9478 15.3307 49.038 15.3143 46.7167ZM27.197 46.7661C27.2134 49.071 29.139 50.9972 31.4596 50.9972C33.7638 50.9972 35.7058 49.0545 35.7223 46.7661C35.7387 44.4448 33.7308 42.4692 31.4103 42.4857C29.1061 42.5021 27.1805 44.4613 27.197 46.7661ZM16.9271 27.2407C15.2484 27.2407 13.6191 27.2407 11.9403 27.2407C11.9403 28.4425 11.9403 29.595 11.9403 30.8791C12.6151 30.5498 13.2076 30.3029 13.7672 29.9736C14.2445 29.6937 14.6395 29.6773 15.1168 29.9572C15.6599 30.2864 16.2688 30.5334 16.9107 30.8462C16.9271 29.595 16.9271 28.4261 16.9271 27.2407ZM17.0094 47.5893C18.4742 47.5893 19.8731 47.5893 21.2721 47.5893C22.6875 47.5893 24.1029 47.5893 25.5018 47.5893C25.5018 46.9801 25.5018 46.5027 25.5018 45.9265C24.07 45.9265 22.6875 45.9265 21.2885 45.9265C19.8731 45.9265 18.4577 45.9265 17.0094 45.9265C17.0094 46.5027 17.0094 46.9966 17.0094 47.5893ZM37.1212 37.3491C37.0389 36.9376 36.9896 36.6248 36.8743 36.312C36.8085 36.0979 36.6439 35.7687 36.5123 35.7522C35.1133 35.7193 33.6979 35.7193 32.3155 35.7193C32.3155 36.3449 32.3155 36.8223 32.3155 37.3327C33.9283 37.3491 35.4754 37.3491 37.1212 37.3491ZM5.09378 45.9923C3.92525 45.9923 2.85548 45.9923 1.76924 45.9923C1.76924 46.5521 1.76924 47.046 1.76924 47.5399C2.92131 47.5399 3.99109 47.5399 5.09378 47.5399C5.09378 46.9966 5.09378 46.5192 5.09378 45.9923ZM39.0304 47.5563C39.0304 46.9801 39.0304 46.4862 39.0304 45.9759C38.4543 45.9759 37.9606 45.9759 37.4504 45.9759C37.4504 46.5356 37.4504 47.0295 37.4504 47.5563C37.977 47.5563 38.4543 47.5563 39.0304 47.5563Z" fill="black"/>
<path id="Vector_2" d="M23.8699 22.1365C24.413 22.1365 24.9232 22.1365 25.4663 22.1365C25.4663 22.6798 25.4663 23.1901 25.4663 23.684C23.8041 24.0133 23.6066 23.8322 23.8699 22.1365Z" fill="black"/>
<path id="Vector_3" d="M28.8764 22.1365C28.8764 22.6962 28.8764 23.1737 28.8764 23.7169C28.3168 23.7169 27.7901 23.7169 27.2306 23.7169C27.2306 23.1901 27.2306 22.6798 27.2306 22.1365C27.7737 22.1365 28.2839 22.1365 28.8764 22.1365Z" fill="black"/>
<path id="Vector_4" d="M20.4649 23.7334C20.4649 23.1572 20.4649 22.6798 20.4649 22.1365C20.9916 22.1365 21.5018 22.1365 22.0449 22.1365C22.0449 22.6633 22.0449 23.1572 22.0449 23.7334C21.5183 23.7334 21.0245 23.7334 20.4649 23.7334Z" fill="black"/>
<path id="Vector_5" d="M28.9259 10.2348C28.9095 6.48122 31.8719 3.5343 35.5915 3.41906C39.2452 3.32028 42.4709 6.3989 42.4874 10.0867C42.4874 13.9391 39.5414 16.9518 35.7396 16.9683C31.9213 16.9848 28.9424 14.0214 28.9259 10.2348ZM30.6211 10.1854C30.6211 13.0171 32.8923 15.3055 35.7231 15.3055C38.5046 15.289 40.7922 13.0007 40.7922 10.2184C40.8087 7.45255 38.5046 5.11477 35.7396 5.11477C32.9088 5.09831 30.6211 7.35377 30.6211 10.1854Z" fill="black"/>
<path id="Vector_6" d="M10.2267 11.0562C10.2267 9.6074 11.3293 8.52083 12.7941 8.53729C14.1931 8.53729 15.2957 9.62387 15.3122 11.0232C15.3287 12.4226 14.1766 13.5915 12.7777 13.608C11.3623 13.608 10.2267 12.472 10.2267 11.0562ZM13.7322 11.2208C13.7322 11.0891 13.7322 10.9739 13.7158 10.8421C13.3866 10.6446 13.0245 10.233 12.7447 10.2824C12.432 10.3318 12.1852 10.7928 11.9218 11.0891C12.2181 11.3525 12.4814 11.797 12.7941 11.8299C13.0739 11.8629 13.4195 11.4348 13.7322 11.2208Z" fill="black"/>
<path id="Vector_7" d="M49.2497 33.1016C49.2662 34.5339 48.147 35.7028 46.7481 35.7193C45.3821 35.7357 44.1806 34.5339 44.1642 33.151C44.1642 31.7846 45.2998 30.6321 46.6658 30.6157C48.147 30.5992 49.2497 31.6693 49.2497 33.1016ZM46.9785 34.0729C47.176 33.7437 47.5874 33.3815 47.5216 33.1181C47.4558 32.8053 46.9949 32.5583 46.7152 32.2785C46.4518 32.5748 46.0404 32.8217 45.9581 33.1675C45.8429 33.6943 46.2543 33.9412 46.9785 34.0729Z" fill="black"/>
<path id="Vector_8" d="M11.0823 49.252C9.61758 49.252 8.53135 48.1984 8.53135 46.7496C8.53135 45.3338 9.66695 44.1649 11.0659 44.1813C12.4319 44.1978 13.5675 45.3173 13.6004 46.6837C13.6498 48.0996 12.5142 49.252 11.0823 49.252ZM11.0823 45.9264C10.5228 45.9429 10.1607 46.2557 10.2759 46.7331C10.3582 47.0624 10.7861 47.2929 11.0659 47.5727C11.3457 47.2929 11.7736 47.0459 11.8559 46.7167C11.9711 46.2392 11.5761 45.9429 11.0823 45.9264Z" fill="black"/>
<path id="Vector_9" d="M31.4433 49.2525C29.995 49.2525 28.9252 48.166 28.9417 46.7007C28.9581 45.3178 30.0444 44.1983 31.4269 44.1819C32.8258 44.1489 33.9614 45.2849 33.9614 46.7337C33.9614 48.1989 32.9081 49.269 31.4433 49.2525ZM31.4104 45.927C30.9167 45.9599 30.5217 46.2398 30.6533 46.7337C30.7356 47.0629 31.18 47.2934 31.4433 47.5733C31.7066 47.2934 32.151 47.0465 32.2168 46.7172C32.3485 46.2233 31.97 45.9434 31.4104 45.927Z" fill="black"/>
</g>
</svg>
